<?xml version="1.0" standalone="no"?><!DOCTYPE svg PUBLIC "-//W3C//DTD SVG 1.1//EN" "http://www.w3.org/Graphics/SVG/1.1/DTD/svg11.dtd"><svg t="1629890008121" class="icon" viewBox="0 0 1033 1024" version="1.1" xmlns="http://www.w3.org/2000/svg" p-id="2099" width="32.28125" height="32" xmlns:xlink="http://www.w3.org/1999/xlink"><defs><style type="text/css"></style></defs><path d="M271.717923 271.838433q376.959146 320.347272 453.971695 533.080981a396.679799 396.679799 0 0 1 105.176815-93.276421A1806.64981 1806.64981 0 0 0 317.732779 230.640402q-23.404108 20.457344-46.014856 41.198031z" fill="#FF1D20" p-id="2100"></path><path d="M814.999241 277.561955q-375.315758 314.623749-452.328307 527.30079a386.479461 386.479461 0 0 0-90.669669-86.532864q279.829264-349.134892 525.317391-479.019192a216.813844 216.813844 0 0 0 17.963928 38.251266z" fill="#FF1D20" p-id="2101"></path><path d="M967.550958 409.089643A459.355207 459.355207 0 1 1 694.408583 88.969045V34.623913A510.016884 510.016884 0 0 0 321.529572 983.93534 510.356896 510.356896 0 0 0 1019.062664 409.089643H967.550958z m0 0A459.355207 459.355207 0 1 1 694.408583 88.969045V34.623913A510.016884 510.016884 0 0 0 321.529572 983.93534 510.356896 510.356896 0 0 0 1019.062664 409.089643H967.550958z m0 0A459.355207 459.355207 0 1 1 694.408583 88.969045V34.623913A510.016884 510.016884 0 0 0 321.529572 983.93534 510.356896 510.356896 0 0 0 1019.062664 409.089643H967.550958z" fill="#FF1D20" p-id="2102"></path></svg>